<?xml version="1.0" encoding="utf-8" ?>
<svg xmlns="http://www.w3.org/2000/svg" xmlns:ev="http://www.w3.org/2001/xml-events" xmlns:xlink="http://www.w3.org/1999/xlink" baseProfile="full" height="57.80604447621144cm" version="1.1" viewBox="-49.28042735825585 -153.6638 203.1217094330234 57.80604447621144" width="203.1217094330234cm">
  <defs/>
  <path d="M 20.188132030294593,-145.6638 L 20.188132030294593,-151.6638 L 0.0,-151.6638 L 0.0,-145.6638 L 20.188132030294593,-145.6638" fill="rgb(227,175,186)" stroke="rgb(51,51,51)" stroke-width="0.2"/>
  <path d="M -20.188132030294593,-145.6638 L 0.0,-145.6638 L 0.0,-151.6638 L -20.188132030294593,-151.6638 L -20.188132030294593,-145.6638" fill="rgb(227,175,186)" stroke="rgb(51,51,51)" stroke-width="0.2"/>
  <path d="M 47.28042735825585,-110.54682934938536 L 16.819582326472748,-141.52561910278504 C 9.007788747560127,-133.38513744358232 18.697560253801996,-124.29155470633876 18.36045013517667,-116.35655079660377 L 37.22652100317946,-100.66101760903379 L 47.28042735825585,-110.54682934938536" fill="rgb(227,175,186)" stroke="rgb(51,51,51)" stroke-width="0.2"/>
  <path d="M -47.28042735825585,-110.54682934938536 L -37.22652100317946,-100.66101760903379 L -18.36045013517667,-116.35655079660377 C -18.697560253802,-124.29155470633876 -9.007788747560127,-133.38513744358232 -16.819582326472748,-141.52561910278504 L -47.28042735825585,-110.54682934938536" fill="rgb(227,175,186)" stroke="rgb(51,51,51)" stroke-width="0.2"/>
  <path d="M 0.0,-97.85775552378857 L 8.473150131373654,-97.85775552378857 L 9.634250131373655,-110.61550785797345 L 10.795350131373658,-97.85775552378857 L 24.921200000000002,-97.85775552378857 L 26.082300000000004,-112.09162216584856 L 13.003468750843743,-113.92612216584855 L 26.082300000000004,-115.76062216584856 L 24.550567069226133,-120.17946335317856 C 16.576451238613863,-121.29133295738427 17.060899682214412,-127.92084067385125 17.068507894374825,-138.60824473629896 C 17.068571956767656,-138.69823442940526 17.06860221158915,-138.78851182394942 17.06859332455889,-138.87907604849107 L 10.919173437499998,-141.32345512801317 A 11.213358548416942,11.213358548416942 0.0 0,1 0.0,-127.55841843038733 L 0.0,-97.85775552378857" fill="rgb(227,175,186)" stroke="rgb(51,51,51)" stroke-width="0.2"/>
  <path d="M 0.0,-97.85775552378857 L 0.0,-127.55841843038733 A 11.213358548416942,11.213358548416942 0.0 0,1 -10.919173437499998,-141.32345512801317 L -17.06859332455889,-138.87907604849107 C -17.06860221158915,-138.78851182394942 -17.068571956767656,-138.69823442940526 -17.068507894374825,-138.60824473629896 C -17.060899682214412,-127.92084067385125 -16.576451238613863,-121.29133295738427 -24.550567069226133,-120.17946335317856 L -26.082300000000004,-115.76062216584856 L -13.003468750843743,-113.92612216584855 L -26.082300000000004,-112.09162216584856 L -24.921200000000002,-97.85775552378857 L -10.795350131373658,-97.85775552378857 L -9.634250131373655,-110.61550785797345 L -8.473150131373654,-97.85775552378857 L 0.0,-97.85775552378857" fill="rgb(227,175,186)" stroke="rgb(51,51,51)" stroke-width="0.2"/>
  <path d="M 104.5608547165117,-104.26453884846742 L 104.5608547165117,-136.13119191508642 A 13.500324332268686,13.500324332268686 0.0 0,0 115.4800281540117,-141.69234698865802 L 121.78925471651169,-139.18444457617935 C 121.3541571774492,-128.5127082285231 120.53211027315233,-121.91137691992935 128.3989047165117,-120.48483188086685 L 128.3989047165117,-116.12951385279467 L 127.68721304984503,-101.895647186128 Q 123.59272017623995,-102.77205311148182 119.47757224126917,-103.34064690733337 L 119.84363634191403,-114.13808342153327 L 117.71036778546832,-103.54715317579763 Q 115.4427862316282,-103.79529678647398 113.17062104488528,-103.95760755331007 L 113.04778817803367,-115.96102357914364 L 111.39502821440044,-104.07130244258926 Q 107.98310105814694,-104.26453888028196 104.5608547165117,-104.26453884846742" fill="rgb(227,175,186)" stroke="rgb(51,51,51)" stroke-width="0.2"/>
  <path d="M 104.5608547165117,-104.26453884846742 Q 101.13860837487645,-104.26453888028196 97.72668121862296,-104.07130244258926 L 96.07392125498973,-115.96102357914364 L 95.95108838813812,-103.95760755331007 Q 93.6789232013952,-103.79529678647398 91.41134164755508,-103.54715317579763 L 89.27807309110936,-114.13808342153327 L 89.64413719175423,-103.34064690733337 Q 85.52898925678345,-102.77205311148182 81.43449638317837,-101.895647186128 L 80.7228047165117,-116.12951385279467 L 80.7228047165117,-120.48483188086685 C 88.58959915987107,-121.91137691992935 87.7675522555742,-128.5127082285231 87.3324547165117,-139.18444457617935 L 93.64168127901169,-141.69234698865802 A 13.500324332268686,13.500324332268686 0.0 0,0 104.5608547165117,-136.13119191508642 L 104.5608547165117,-104.26453884846742" fill="rgb(227,175,186)" stroke="rgb(51,51,51)" stroke-width="0.2"/>
  <path d="M 151.84128207476755,-110.54682934938536 L 141.78737571969114,-100.66101760903379 L 122.92130485168835,-116.35655079660376 C 122.96115324378636,-124.29742197213284 113.03823401733578,-132.73961240059396 121.1814239440493,-141.29900743344263 C 121.24756657795494,-141.37605353495655 121.31390543227914,-141.4515831435954 121.38043704298444,-141.52561910278504 L 151.84128207476755,-110.54682934938536" fill="rgb(227,175,186)" stroke="rgb(51,51,51)" stroke-width="0.2"/>
  <path d="M 57.28042735825585,-110.54682934938536 L 87.74127239003896,-141.52561910278504 C 87.80780400074426,-141.4515831435954 87.87414285506844,-141.37605353495655 87.9402854889741,-141.29900743344263 C 96.08347541568762,-132.73961240059396 86.16055618923703,-124.29742197213284 86.20040458133505,-116.35655079660376 L 67.33433371333226,-100.66101760903379 L 57.28042735825585,-110.54682934938536" fill="rgb(227,175,186)" stroke="rgb(51,51,51)" stroke-width="0.2"/>
  <path d="M 117.27981690169253,-145.6638 L 104.5608547165117,-145.6638 L 104.5608547165117,-151.6638 L 117.27981690169253,-151.6638 L 117.27981690169253,-145.6638" fill="rgb(227,175,186)" stroke="rgb(51,51,51)" stroke-width="0.2"/>
  <path d="M 91.84189253133087,-145.6638 L 91.84189253133087,-151.6638 L 104.5608547165117,-151.6638 L 104.5608547165117,-145.6638 L 91.84189253133087,-145.6638" fill="rgb(227,175,186)" stroke="rgb(51,51,51)" stroke-width="0.2"/>
</svg>
