<?xml version="1.0" encoding="utf-8" ?>
<svg xmlns="http://www.w3.org/2000/svg" xmlns:ev="http://www.w3.org/2001/xml-events" xmlns:xlink="http://www.w3.org/1999/xlink" baseProfile="full" height="98.25626499595518cm" version="1.1" viewBox="-26.521319726634506 -110.77250000000001 117.47800000028806 98.25626499595518" width="117.47800000028806cm">
  <defs/>
  <path d="M -23.13254642613193,-108.77250000000001 L -23.716277450976804,-102.52976725790988 A 248.6585379761579,248.6585379761579 0.0 0,0 22.583731024844866,-102.52976725790988 L 22.0,-108.77250000000001 A 242.38857354256402,242.38857354256402 0.0 0,1 -23.13254642613193,-108.77250000000001" fill="rgb(227,175,186)" stroke="rgb(51,51,51)" stroke-width="0.2"/>
  <path d="M -20.630789453125004,-15.51623500404483 L -1.1941699384356994,-15.51623500404483 L -0.1941699384356994,-25.196580826340977 L 0.8058300615643006,-15.51623500404483 L 20.24244999999999,-15.51623500404483 Q 24.13299701412037,-59.00688335135544 24.13298027343749,-75.05181531654483 Q 24.132963766188595,-85.60460789069745 22.583720800781244,-96.10458543373232 L -22.972060253906253,-96.10458543373232 Q -24.521303220324203,-85.60460786694266 -24.521319726562503,-75.05181531654483 Q -24.52133629226664,-59.17124037796771 -20.710087478549347,-16.404355036160652 Q -20.670642586110908,-15.961734972583827 -20.630789453125004,-15.51623500404483" fill="rgb(227,175,186)" stroke="rgb(51,51,51)" stroke-width="0.2"/>
  <path d="M 38.02351054701903,-14.51623500404483 Q 37.983657414033125,-14.961734972583827 37.944212521594686,-15.404355036160652 Q 34.132963707877394,-58.17124037796771 34.13298027358153,-74.05181531654483 Q 34.132980449316086,-85.14330895358755 36.04069258945125,-96.15722393959172 L 45.02418923143491,-96.15722393959172 L 46.305255805787795,-79.1526675099955 L 47.58632238014067,-96.15722393959172 L 52.14487232135366,-96.15722393959172 L 53.425938895706544,-77.25308779392608 L 54.70700547005943,-96.15722393959172 L 68.38265543569766,-96.15722393959172 L 69.66372201005055,-77.25308779392608 L 70.94478858440343,-96.15722393959172 L 75.50333842668854,-96.15722393959172 L 76.78440500104142,-79.1526675099955 L 78.0654715753943,-96.15722393959172 L 87.04896795771182,-96.15722393959172 Q 88.95668009615599,-85.1433090048878 88.95668027358153,-74.05181531654483 Q 88.95669701426442,-58.006883351355434 85.06615000014403,-14.51623500404483 L 62.54483003829336,-14.51623500404483 L 61.54483003829336,-17.289523266648587 L 60.54483003829336,-14.51623500404483 L 38.02351054701903,-14.51623500404483" fill="rgb(227,175,186)" stroke="rgb(51,51,51)" stroke-width="0.2"/>
  <path d="M 42.15995041023654,-108.77250000000001 A 62.244503383486524,62.244503383486524 0.0 0,0 80.65430000014405,-108.77250000000001 L 82.59309129659027,-102.80982087838404 A 68.51446781707772,68.51446781707772 0.0 0,1 73.38973917500493,-100.50795601214604 A 68.51446781702688,68.51446781702688 0.0 0,1 68.62046625689106,-99.83276412431053 A 68.51446781707766,68.51446781707766 0.0 0,1 54.19378453037265,-99.83276408440972 A 68.51446781702984,68.51446781702984 0.0 0,1 49.42451150558093,-100.50795596414962 A 68.51446781709623,68.51446781709623 0.0 0,1 40.2211591137903,-102.80982087838404 L 42.15995041023654,-108.77250000000001" fill="rgb(227,175,186)" stroke="rgb(51,51,51)" stroke-width="0.2"/>
</svg>
