<?xml version="1.0" encoding="utf-8" ?>
<svg xmlns="http://www.w3.org/2000/svg" xmlns:ev="http://www.w3.org/2001/xml-events" xmlns:xlink="http://www.w3.org/1999/xlink" baseProfile="full" height="99.20341215820314cm" version="1.1" viewBox="-32.54271858398438 -111.26950411132813 144.17087433593753 99.20341215820314" width="144.17087433593753cm">
  <defs/>
  <path d="M -22.598999999999997,-102.77250000000001 L 0.0,-102.77250000000001 L 22.598999999999997,-102.77250000000001 L 22.598999999999997,-109.26950411132813 L -22.598999999999997,-109.26950411132813 L -22.598999999999997,-102.77250000000001" fill="rgb(227,175,186)" stroke="rgb(51,51,51)" stroke-width="0.2"/>
  <path d="M 27.58543716796875,-16.139262343750005 Q 30.5427187248557,-61.55815854018973 30.542718583984374,-77.04079609375002 Q 30.542702329476334,-87.43265281061218 29.01708616210938,-97.77250000000001 L 6.215568583984378,-97.77250000000001 L 6.215568583984378,-86.37006285156252 Q 6.215555970024635,-68.22716393445296 0.13378108398438116,-68.22716609375001 Q 3.013557863313281,-52.731893278173914 5.091062500000007,-16.139262343750005 L 27.58543716796875,-16.139262343750005" fill="rgb(227,175,186)" stroke="rgb(51,51,51)" stroke-width="0.2"/>
  <path d="M -27.58543716796875,-16.139262343750005 L -5.091062500000007,-16.139262343750005 Q -3.013557863313281,-52.73189327817392 -0.13378108398438116,-68.22716609375001 Q -6.215555970024635,-68.22716393445296 -6.215568583984378,-86.37006285156252 L -6.215568583984378,-97.77250000000001 L -29.01708616210938,-97.77250000000001 Q -30.542702329476338,-87.43265281061218 -30.542718583984374,-77.04079609375002 Q -30.5427187248557,-61.55815854018973 -27.58543716796875,-16.139262343750005" fill="rgb(227,175,186)" stroke="rgb(51,51,51)" stroke-width="0.2"/>
  <path d="M 106.67087433593751,-14.066091953124996 L 79.79047466796877,-14.066091953124996 Q 77.71297003128203,-50.65872288754891 74.83319325195313,-66.153995703125 Q 82.2162606943763,-66.15399781441491 82.21630575195314,-85.22981913671876 L 82.21630575195314,-97.77250000000001 L 89.0541307236357,-97.77250000000001 L 90.29329582707632,-79.57073259867252 L 91.53246093051696,-97.77250000000001 L 96.09101097480442,-97.77250000000001 L 97.33017607824505,-81.39981659556805 L 98.56934118168569,-97.77250000000001 L 107.66007905634069,-97.77250000000001 Q 109.62815557065795,-86.41007956257575 109.62815575195313,-74.96762570312501 Q 109.62815589282447,-59.48498814956472 106.67087433593751,-14.066091953124996" fill="rgb(227,175,186)" stroke="rgb(51,51,51)" stroke-width="0.2"/>
  <path d="M 43.500000000000014,-14.066091953124996 Q 40.54271844311306,-59.48498814956472 40.54271858398439,-74.96762570312501 Q 40.542718765279574,-86.41007956257575 42.51079527959684,-97.77250000000001 L 51.60153315425184,-97.77250000000001 L 52.84069825769248,-81.39981659556805 L 54.079863361133114,-97.77250000000001 L 58.638413405420565,-97.77250000000001 L 59.8775785088612,-79.57073259867252 L 61.11674361230183,-97.77250000000001 L 67.95456858398438,-97.77250000000001 L 67.95456858398438,-85.22981913671876 Q 67.95461364156122,-66.15399781441491 75.33768108398439,-66.153995703125 Q 72.4579043046555,-50.658722887548905 70.38039966796876,-14.066091953124996 L 43.500000000000014,-14.066091953124996" fill="rgb(227,175,186)" stroke="rgb(51,51,51)" stroke-width="0.2"/>
  <path d="M 55.51753716796876,-102.77250000000001 L 55.51753716796876,-109.26950411132813 L 94.65333716796877,-109.26950411132813 L 94.65333716796877,-102.77250000000001 L 85.97048123765057,-102.77250000000001 L 81.61646357357887,-102.77250000000001 L 75.08543716796876,-102.77250000000001 L 68.55441076235866,-102.77250000000001 L 64.20039309828695,-102.77250000000001 L 55.51753716796876,-102.77250000000001" fill="rgb(227,175,186)" stroke="rgb(51,51,51)" stroke-width="0.2"/>
</svg>
