<?xml version="1.0" encoding="utf-8" ?>
<svg xmlns="http://www.w3.org/2000/svg" xmlns:ev="http://www.w3.org/2001/xml-events" xmlns:xlink="http://www.w3.org/1999/xlink" baseProfile="full" height="107.05675637695312cm" version="1.1" viewBox="-33.14776396484375 -111.18694422851563 146.591055859375 107.05675637695312" width="146.591055859375cm">
  <defs/>
  <path d="M -22.598999999999997,-102.77250000000001 L 0.0,-102.77250000000001 L 22.598999999999997,-102.77250000000001 L 22.598999999999997,-109.18694422851563 L -22.598999999999997,-109.18694422851563 L -22.598999999999997,-102.77250000000001" fill="rgb(227,175,186)" stroke="rgb(51,51,51)" stroke-width="0.2"/>
  <path d="M 29.795527929687502,-8.267571484375011 Q 31.147761938817908,-59.37935015937995 31.14776396484375,-76.39866367187501 Q 31.147747206876513,-87.11239205639455 29.574877441406247,-97.77250000000001 L 6.820613964843755,-97.77250000000001 L 6.820613964843755,-86.01689001953126 Q 6.820595428220482,-67.58503586541053 0.7388264648437577,-67.58503367187501 Q 3.1427405327851154,-49.86781662180669 4.091062500000007,-8.267571484375011 L 29.795527929687502,-8.267571484375011" fill="rgb(227,175,186)" stroke="rgb(51,51,51)" stroke-width="0.2"/>
  <path d="M -29.795527929687502,-8.267571484375011 L -4.091062500000007,-8.267571484375011 Q -3.142740532785112,-49.86781662180669 -0.7388264648437577,-67.58503367187501 Q -6.820595428220482,-67.58503586541053 -6.820613964843755,-86.01689001953126 L -6.820613964843755,-97.77250000000001 L -29.574877441406247,-97.77250000000001 Q -31.147747206876517,-87.11239205639455 -31.14776396484375,-76.39866367187501 Q -31.147761938817908,-59.37935015937995 -29.795527929687502,-8.267571484375011" fill="rgb(227,175,186)" stroke="rgb(51,51,51)" stroke-width="0.2"/>
  <path d="M 110.09105585937499,-6.130187851562511 L 80.00056542968748,-6.130187851562511 Q 79.0522434624726,-47.73043298899419 76.64832939453123,-65.44765003906251 Q 84.03142221333135,-65.4476509773325 84.03144189453124,-84.84132902148438 L 84.03144189453124,-97.77250000000001 L 90.86926685503892,-97.77250000000001 L 92.14681317849762,-79.00696104199424 L 93.42435950195633,-97.77250000000001 L 97.98290955967083,-97.77250000000001 L 99.26045588312954,-80.89269808304141 L 100.53800220658825,-97.77250000000001 L 109.41425707117858,-97.77250000000001 Q 111.4432917076207,-86.05814618356871 111.44329189453124,-74.26128003906251 Q 111.44328986850539,-57.24196652656745 110.09105585937499,-6.130187851562511" fill="rgb(227,175,186)" stroke="rgb(51,51,51)" stroke-width="0.2"/>
  <path d="M 42.5,-6.130187851562511 Q 41.147765990869594,-57.24196652656745 41.14776396484375,-74.26128003906251 Q 41.14776415175429,-86.05814618356871 43.176798788196415,-97.77250000000001 L 52.053053652786744,-97.77250000000001 L 53.33059997624545,-80.89269808304141 L 54.60814629970416,-97.77250000000001 L 59.16669635741866,-97.77250000000001 L 60.444242680877366,-79.00696104199424 L 61.721789004336074,-97.77250000000001 L 68.55961396484375,-97.77250000000001 L 68.55961396484375,-84.84132902148438 Q 68.55963364604362,-65.4476509773325 75.94272646484376,-65.44765003906251 Q 73.53881239690239,-47.73043298899419 72.5904904296875,-6.130187851562511 L 42.5,-6.130187851562511" fill="rgb(227,175,186)" stroke="rgb(51,51,51)" stroke-width="0.2"/>
  <path d="M 56.72762792968749,-102.77250000000001 L 56.72762792968749,-109.18694422851563 L 95.8634279296875,-109.18694422851563 L 95.8634279296875,-102.77250000000001 L 87.29573500731661,-102.77250000000001 L 82.89565212759226,-102.77250000000001 L 76.2955279296875,-102.77250000000001 L 69.69540373178273,-102.77250000000001 L 65.29532085205837,-102.77250000000001 L 56.72762792968749,-102.77250000000001" fill="rgb(227,175,186)" stroke="rgb(51,51,51)" stroke-width="0.2"/>
</svg>
